# xmcd
#
# Track frame offsets:
#	150
#	22041
#	37000
#	48397
#	68689
#	82339
#	104834
#	131060
#	153505
#	166113
#	177076
#	187296
#	198506
#	212499
#	222997
#	235416
#	254507
#	267868
#	282233
#	308297
#
# Disc length: 4319 seconds
#
# Revision: 6
# Processed by: cddbd v1.5.2PL0 Copyright (c) Steve Scherf et al.
# Submitted via: EZCDAudioConverter 2.1.7.1
#
DISCID=2f10dd14
DTITLE=V/A - The Score
DYEAR=2002
DGENRE=MOJO
TTITLE0=Johnny Pate and Adam Wade - Brother On The Run (Opening)
TTITLE1=The Kinks - God's Children
TTITLE2=Quincy Jones - Something's Cookin'
TTITLE3=DJ Shadow - Dark Days
TTITLE4=Roy Budd - Get Carter
TTITLE5=Elmer Bernstein - Frankie Machine
TTITLE6=Mrs. Washington and Co. - You Cut Up The Clothes
TTITLE7=Booker T. and The MG's - Time Is Tight
TTITLE8=John Barry - Midnght Cowboy
TTITLE9=Peter Cook and Dudley Moore - Bedazzled
TTITLE10=Henry Mancini - Arabesque
TTITLE11=Mongo Santamaria - Watermelon Man
TTITLE12=Vince Guaraldi - Linus And Lucy
TTITLE13=David Shire - The Taking Of Pelham One Two Three
TTITLE14=Isaac Hayes - Truck Turner
TTITLE15=Wil Malone - Death Line
TTITLE16=Ennio Morricone - A Fistful Of Dollars
TTITLE17=The Slickers - Johnny Too Bad
TTITLE18=Moby - God Moving Over The Face Of The Water
TTITLE19=Nick Cave - Let It Be
EXTD=
EXTT0=
EXTT1=
EXTT2=
EXTT3=
EXTT4=
EXTT5=
EXTT6=
EXTT7=
EXTT8=
EXTT9=
EXTT10=
EXTT11=
EXTT12=
EXTT13=
EXTT14=
EXTT15=
EXTT16=
EXTT17=
EXTT18=
EXTT19=
PLAYORDER=
